# xmcd
#
# Track frame offsets:
#	150
#	12625
#	25883
#	36875
#	53408
#	65510
#	80730
#	93008
#	103900
#	127518
#	140983
#
# Disc length: 2026 seconds
# Revision: 0
# Processed by: cddbd v1.5.2PL0 Copyright (c) Steve Scherf et al.
# Submitted via: dBpowerAMP V12.0
#
DISCID=8e07e80b
DTITLE=Hickory Grove - At The Mill
DYEAR=1995
DGENRE=Bluegrass
TTITLE0=Sail Away Ladies
TTITLE1=Six White Horses
TTITLE2=Columbus Georgia Blues
TTITLE3=Piney River Girl
TTITLE4=You Don't Know My Mind
TTITLE5=Coal Tatoo
TTITLE6=Papa's On The Housetop
TTITLE7=Close The Door Lightly
TTITLE8=Love At The Five And Dime
TTITLE9=Old Joe Clark
TTITLE10=Old Man At The Mill
EXTD=
EXTT0=
EXTT1=
EXTT2=
EXTT3=
EXTT4=
EXTT5=
EXTT6=
EXTT7=
EXTT8=
EXTT9=
EXTT10=
PLAYORDER=
